<?xml version="1.0" encoding="UTF-8" standalone="no"?>
<!-- Created with Inkscape (http://www.inkscape.org/) -->

<svg
   xmlns:dc="http://purl.org/dc/elements/1.1/"
   xmlns:cc="http://creativecommons.org/ns#"
   xmlns:rdf="http://www.w3.org/1999/02/22-rdf-syntax-ns#"
   xmlns:svg="http://www.w3.org/2000/svg"
   xmlns="http://www.w3.org/2000/svg"
   xmlns:sodipodi="http://sodipodi.sourceforge.net/DTD/sodipodi-0.dtd"
   xmlns:inkscape="http://www.inkscape.org/namespaces/inkscape"
   width="210mm"
   height="297mm"
   viewBox="0 0 744.09448819 1052.3622047"
   id="svg2"
   version="1.1"
   inkscape:version="0.91 r13725"
   sodipodi:docname="f2g.svg">
  <defs
     id="defs4">
    <inkscape:perspective
       sodipodi:type="inkscape:persp3d"
       inkscape:vp_x="80.000001 : 509.03824 : 1"
       inkscape:vp_y="0 : 1000 : 0"
       inkscape:vp_z="504.09449 : 491.89538 : 1"
       inkscape:persp3d-origin="372.04724 : 350.7874 : 1"
       id="perspective3355" />
  </defs>
  <sodipodi:namedview
     id="base"
     pagecolor="#ffffff"
     bordercolor="#666666"
     borderopacity="1.0"
     inkscape:pageopacity="0.0"
     inkscape:pageshadow="2"
     inkscape:zoom="0.35"
     inkscape:cx="375"
     inkscape:cy="520"
     inkscape:document-units="px"
     inkscape:current-layer="layer1"
     showgrid="false"
     inkscape:window-width="1855"
     inkscape:window-height="1056"
     inkscape:window-x="65"
     inkscape:window-y="24"
     inkscape:window-maximized="1" />
  <metadata
     id="metadata7">
    <rdf:RDF>
      <cc:Work
         rdf:about="">
        <dc:format>image/svg+xml</dc:format>
        <dc:type
           rdf:resource="http://purl.org/dc/dcmitype/StillImage" />
        <dc:title></dc:title>
      </cc:Work>
    </rdf:RDF>
  </metadata>
  <g
     inkscape:label="Layer 1"
     inkscape:groupmode="layer"
     id="layer1">
    <g
       sodipodi:type="inkscape:box3d"
       id="g3357"
       style="fill:#800000;fill-rule:evenodd;stroke:none;stroke-width:1px;stroke-linecap:butt;stroke-linejoin:round;stroke-opacity:1"
       inkscape:perspectiveID="#perspective3355"
       inkscape:corner0="2.6171259 : 1.0210874 : 0 : 1"
       inkscape:corner7="1.1346973 : -0.76033842 : 7745.3111 : 1">
      <path
         sodipodi:type="inkscape:box3dside"
         id="path3367"
         style="fill:#800000;fill-rule:evenodd;stroke:none;stroke-width:1px;stroke-linecap:butt;stroke-linejoin:round;stroke-opacity:1"
         inkscape:box3dsidetype="13"
         d="m 160.74014,797.27954 56.06953,176.35802 287.20566,-413.05688 -0.0811,-0.003 z"
         points="216.80967,973.63756 504.01533,560.58068 503.93421,560.57738 160.74014,797.27954 " />
      <path
         sodipodi:type="inkscape:box3dside"
         id="path3359"
         style="fill:#800000;fill-rule:evenodd;stroke:none;stroke-width:1px;stroke-linecap:butt;stroke-linejoin:round;stroke-opacity:1"
         inkscape:box3dsidetype="6"
         d="m 160.74014,304.78195 0,492.49759 343.19407,-236.70216 0,-0.2299 z"
         points="160.74014,797.27954 503.93421,560.57738 503.93421,560.34748 160.74014,304.78195 " />
      <path
         sodipodi:type="inkscape:box3dside"
         id="path3369"
         style="fill:#800000;fill-rule:evenodd;stroke:none;stroke-width:1px;stroke-linecap:butt;stroke-linejoin:round;stroke-opacity:1"
         inkscape:box3dsidetype="11"
         d="m 503.93421,560.34748 0.0811,0.003 0,0.22994 -0.0811,-0.003 z"
         points="504.01533,560.35074 504.01533,560.58068 503.93421,560.57738 503.93421,560.34748 " />
      <path
         sodipodi:type="inkscape:box3dside"
         id="path3361"
         style="fill:#800000;fill-rule:evenodd;stroke:none;stroke-width:1px;stroke-linecap:butt;stroke-linejoin:round;stroke-opacity:1"
         inkscape:box3dsidetype="5"
         d="m 160.74014,304.78195 56.06953,-165.65418 287.20566,421.22297 -0.0811,-0.003 z"
         points="216.80967,139.12777 504.01533,560.35074 503.93421,560.34748 160.74014,304.78195 " />
      <path
         sodipodi:type="inkscape:box3dside"
         id="path3365"
         style="fill:#800000;fill-rule:evenodd;stroke:none;stroke-width:1px;stroke-linecap:butt;stroke-linejoin:round;stroke-opacity:1"
         inkscape:box3dsidetype="14"
         d="m 216.80967,139.12777 0,834.50979 287.20566,-413.05688 0,-0.22994 z"
         points="216.80967,973.63756 504.01533,560.58068 504.01533,560.35074 216.80967,139.12777 " />
      <path
         sodipodi:type="inkscape:box3dside"
         id="path3363"
         style="fill:#800000;fill-rule:evenodd;stroke:none;stroke-width:1px;stroke-linecap:butt;stroke-linejoin:round;stroke-opacity:1"
         inkscape:box3dsidetype="3"
         d="m 160.74014,304.78195 56.06953,-165.65418 0,834.50979 -56.06953,-176.35802 z"
         points="216.80967,139.12777 216.80967,973.63756 160.74014,797.27954 160.74014,304.78195 " />
    </g>
    <ellipse
       style="fill:#6c5353"
       id="path3373"
       cx="167.14285"
       cy="550.93365"
       rx="138.57143"
       ry="287.14285" />
    <path
       sodipodi:type="spiral"
       style="fill:#d45500;fill-rule:evenodd;stroke:#000000;stroke-width:1px;stroke-linecap:butt;stroke-linejoin:miter;stroke-opacity:1"
       id="path3377"
       sodipodi:cx="414.28574"
       sodipodi:cy="432.36221"
       sodipodi:expansion="1"
       sodipodi:revolution="1.8864211"
       sodipodi:radius="160.71207"
       sodipodi:argument="-17.177979"
       sodipodi:t0="0.11021548"
       d="m 396.80947,435.2482 c -13.61965,-12.7849 -2.39416,-34.02549 11.12008,-41.37619 25.57866,-13.91281 55.78329,3.78205 65.86033,28.66383 15.13352,37.36703 -9.9407,77.99083 -46.20758,90.34446 -48.95312,16.67496 -100.35997,-16.07906 -114.82859,-63.75133 -18.3536,-60.47283 22.20392,-122.80621 81.29508,-139.31272 71.96384,-20.10235 145.29552,28.32048 163.79684,98.83882 14.88067,56.71812 -6.48267,117.8021 -51.1173,155.17096"
       transform="matrix(0.97702808,0,0,1.319981,7.1453506,-180.45124)" />
    <path
       sodipodi:type="spiral"
       style="fill:none;fill-rule:evenodd;stroke:#000000;stroke-width:1px;stroke-linecap:butt;stroke-linejoin:miter;stroke-opacity:1"
       id="path3381"
       sodipodi:cx="897.14288"
       sodipodi:cy="1000.9337"
       sodipodi:expansion="1"
       sodipodi:revolution="1.88642"
       sodipodi:radius="17.379322"
       sodipodi:argument="-13.258374"
       sodipodi:t0="0.110215"
       d="m 898.70811,1002.0378 c 0.0788,2.0186 -2.39807,2.8027 -3.99697,2.3432 -3.02627,-0.8697 -4.0099,-4.52519 -2.89763,-7.20665 1.67038,-4.02698 6.68513,-5.2531 10.41637,-3.45208 5.03644,2.43102 6.51028,8.85573 4.00653,13.62603 -3.17605,6.0512 -11.0312,7.7745 -16.83577,4.561 -7.06908,-3.9135 -9.04254,-13.20925 -5.11543,-20.04546 3.15859,-5.49838 9.44039,-8.58219 15.71482,-8.07298" />
  </g>
</svg>
